<svg xmlns="http://www.w3.org/2000/svg" version="1.1" xmlns:xlink="http://www.w3.org/1999/xlink" xmlns:svgjs="http://svgjs.dev/svgjs" viewBox="0 0 800 800" opacity="1"><g stroke-width="2" stroke="#f41415" fill="none" stroke-linecap="round"><path d="M380.73 60.99Q391.34 63.7 402.48 67.34 414.11 72.08 426.18 77.99 438.61 85.03 451.34 93.07 464.28 101.88 477.32 111.15 490.36 120.52 503.31 129.62 516.04 138.08 528.45 145.59 540.44 151.92 551.93 156.92 562.82 160.59 573.04 163.01 590.91 164.93 606.47 165.89 618.34 169.34 628.27 176.36 632.32 182.42 636.01 189.95 639.45 198.79 642.8 208.62 646.18 219.05 649.74 229.63 653.61 239.87 657.94 249.31 651.48 259.92 648.36 270.54 648.89 281.16 653.02 291.78 660.35 302.39 670.17 313.01 681.52 323.63 693.31 334.24 704.39 344.86 713.68 355.48 720.29 366.1 723.57 376.71 723.21 387.33 719.23 397.95 712.03 408.57 702.31 419.18 691 429.8 679.21 440.42 668.08 451.04 658.68 461.65 651.93 472.27 648.49 482.89 648.69 493.51 652.5 504.12 659.57 514.74 669.2 525.36 680.45 535.98 692.25 546.6 703.44 557.21 712.93 567.83 705.48 581.47 682.27 575.82 670.01 572.38 657.14 570.49 643.77 570.79 630.02 573.72 616.03 579.53 601.92 588.18 587.84 599.41 573.89 612.7 560.22 627.35 546.92 642.55 534.1 657.4 521.83 671.04 510.18 682.7 499.21 691.79 488.94 697.93 479.38 701 462.67 697.85 447.86 689.27 427.29 679.07 413.78 683.72 408.5 692.54 403.08 704.29 390.64 708.26 378.36 713.61 366.32 719.41 354.59 724.68 343.23 728.52 332.29 730.15 321.79 729 311.75 724.75 302.2 717.36 293.11 707.04 284.47 694.29 276.25 679.79 268.4 664.4 260.89 649 253.64 634.51 246.61 621.73 239.72 611.31 232.92 603.69 219.25 598.58 205.28 600.95 190.37 609.46 174.71 616.81 166.39 617.86 157.81 616.48 148.95 612.36 139.86 605.44 130.54 595.92 121.04 584.2 120.36 573.64 119.07 563.09 117.28 552.53 115.17 541.97 112.95 531.41 110.83 520.86 109.02 510.3 107.69 499.74 106.97 489.18 106.94 478.63 107.58 468.07 108.85 457.51 110.62 446.96 112.72 436.4 114.94 425.84 117.07 415.28 118.9 404.73 120.25 394.17 121 383.61 121.07 373.06 120.45 362.5 119.21 351.94 117.46 341.38 115.37 330.83 113.15 320.27 111.02 309.71 109.17 299.16 107.79 288.6 107.01 278.04 106.91 267.49 112.83 250.92 127.84 242.05 137.75 237.61 147.87 231.56 158.18 224.01 168.66 215.21 179.26 205.51 189.94 195.31 200.64 185.07 211.32 175.24 221.92 166.21 232.38 158.31 242.64 151.76 252.65 146.64 262.37 142.91 271.74 140.42 289.13 138.13 305.3 136.56 319.48 132.46 332.62 125.17 338.71 119.39 344.61 112.45 350.41 104.53 356.18 95.9 362.02 86.89 367.99 77.85 377.47 65.05 380.73 60.99" stroke-dasharray="2 9" transform="rotate(0, 400, 400)" opacity="0.05"></path><path d="M386.5 73.36Q397.73 75.87 409.32 79.26 421.22 83.7 433.36 89.26 445.65 95.91 458.03 103.55 470.39 111.98 482.65 120.93 494.72 130.09 506.49 139.1 517.89 147.63 528.84 155.38 539.27 162.08 549.1 167.57 566.49 174.18 581.84 177.55 601.06 179.76 612.13 184.36 619.13 195.37 626.01 210.48 629.68 219.98 633.68 230.1 638.11 240.41 643.1 250.49 638.81 260.6 637.77 270.7 640.08 280.81 645.51 290.91 653.59 301.02 663.59 311.12 674.62 321.22 685.68 331.33 695.78 341.43 704.01 351.54 709.64 361.64 712.16 371.75 711.35 381.85 707.27 391.96 700.3 402.06 691.06 412.17 680.37 422.27 669.2 432.38 658.55 442.48 649.38 452.59 642.51 462.69 638.55 472.8 637.86 482.9 640.51 493.01 646.25 503.11 654.57 513.22 664.72 523.32 675.8 533.42 686.8 543.53 696.75 553.63 694.27 565 674.91 559.76 664.16 558.14 652.75 558.53 640.75 561.33 628.25 566.74 615.36 574.76 602.19 585.16 588.85 597.54 575.45 611.29 562.11 625.71 548.93 640.05 536.02 653.51 523.47 665.41 511.36 675.14 499.75 682.3 488.7 686.68 478.26 688.29 468.44 687.38 459.25 684.41 450.69 680 442.74 674.91 428.73 666.78 416.1 663.62 410.41 666.36 404.97 672.05 399.69 680.66 394.48 691.92 382.86 695.6 371.56 700.57 360.63 706 350.12 711.06 340.04 714.94 330.43 716.91 321.27 716.46 312.58 713.22 304.32 707.1 296.47 698.21 288.99 686.91 281.84 673.73 274.96 659.36 268.3 644.58 261.81 630.19 255.41 616.95 249.04 605.52 242.66 596.4 229.53 587.44 215.89 586.06 201.09 592.98 185.47 600.96 168.51 603.67 150.82 600 141.61 593.83 132.26 585.22 131.15 574.98 129.5 564.74 127.44 554.5 125.16 544.26 122.87 534.01 120.77 523.77 119.04 513.53 117.85 503.29 117.31 493.05 117.45 482.81 118.27 472.56 119.69 462.32 121.59 452.08 123.8 441.84 126.11 431.6 128.32 421.36 130.23 411.11 131.68 400.87 132.52 390.63 132.69 380.39 132.17 370.15 131 359.91 129.3 349.67 127.21 339.42 124.92 329.18 122.63 318.94 120.56 308.7 118.89 298.46 117.77 288.22 117.29 277.98 122.4 261.11 136.45 249.96 145.82 243.92 155.42 236.47 165.24 227.86 175.26 218.39 185.43 208.46 195.75 198.46 206.15 188.83 216.6 179.91 227.04 172.03 237.42 165.39 247.7 160.1 257.81 156.17 267.7 153.47 277.33 151.79 286.65 150.86 295.62 150.31 312.22 148.61 327.61 144.99 341.06 136.11 353.49 123.79 359.22 115.91 364.76 107.41 370.18 98.59 375.56 89.77 383.74 77.31 386.5 73.36" stroke-dasharray="5 7" transform="rotate(4.04, 400, 400)" opacity="0.09"></path><path d="M394.25 85.73Q405.64 88.04 417.21 91.19 428.89 95.33 440.61 100.54 452.29 106.79 463.86 114.02 475.24 122.05 486.34 130.64 497.1 139.53 507.45 148.41 517.33 156.94 526.69 164.85 535.48 171.88 543.68 177.82 557.94 185.54 570.4 189.88 592.78 193.93 602.73 200.81 610.26 213.92 618.79 230.53 623.87 240.27 629.55 250.3 627.38 259.88 628.23 269.45 632.05 279.03 638.51 288.61 647.08 298.18 657.05 307.76 667.59 317.34 677.84 326.92 686.94 336.49 694.14 346.07 698.85 355.65 700.67 365.23 699.46 374.8 695.31 384.38 688.57 393.96 679.8 403.54 669.72 413.11 659.16 422.69 649.01 432.27 640.09 441.84 633.16 451.42 628.77 461 627.31 470.57 628.87 480.15 633.35 489.73 640.36 499.31 649.32 508.88 659.51 518.46 670.06 528.04 680.11 537.61 681.71 548.56 665.89 545.76 656.64 546.41 646.72 549.27 636.16 554.51 625.05 562.11 613.44 571.9 601.43 583.51 589.1 596.45 576.56 610.11 563.89 623.82 551.2 636.92 538.58 648.76 526.12 658.79 513.91 666.6 502.02 671.93 490.53 674.71 479.48 675.07 468.94 673.31 458.92 669.91 449.46 665.46 440.55 660.65 424.66 653.66 410.29 651.62 403.89 654.66 397.87 660.39 392.16 668.77 386.7 679.55 376.28 682.95 366.29 687.54 356.72 692.63 347.61 697.46 330.92 702.52 315.48 701.4 308.43 696.46 301.68 688.95 295.21 679.08 288.95 667.28 282.85 654.08 276.85 640.14 270.9 626.14 264.94 612.78 258.92 600.7 252.78 590.43 239.91 577.95 226.37 572.69 211.54 577.02 195.88 584.16 187.6 587.8 179.07 590.48 170.33 591.66 161.41 590.9 152.33 587.93 143.13 582.64 141.62 572.76 139.64 562.88 137.37 553.01 134.98 543.13 132.67 533.25 130.64 523.37 129.05 513.49 128.04 503.62 127.69 493.74 128.02 483.86 129.01 473.98 130.58 464.1 132.6 454.23 134.9 444.35 137.29 434.47 139.57 424.59 141.56 414.71 143.09 404.84 144.03 394.96 144.3 385.08 143.89 375.2 142.82 365.32 141.19 355.45 139.13 345.57 136.81 335.69 134.42 325.81 132.16 315.93 130.22 306.05 128.76 296.18 127.9 286.3 127.7 276.42 128.19 266.54 136.55 261.82 145.12 255.68 153.92 248.25 162.96 239.75 172.22 230.48 181.7 220.8 191.38 211.08 201.23 201.69 211.23 192.97 221.33 185.21 231.5 178.6 241.69 173.27 251.85 169.23 261.93 166.4 271.88 164.6 281.66 163.6 291.21 163.1 300.49 162.77 317.91 160.91 334.23 156.84 341.71 153.05 348.8 148.1 355.5 142.06 361.82 135.04 367.81 127.22 373.5 118.87 378.93 110.25 384.15 101.67 391.74 89.57 394.25 85.73" stroke-dasharray="10 2" transform="rotate(8.08, 400, 400)" opacity="0.13"></path><path d="M402.84 98.11Q413.91 100.23 424.98 103.14 435.97 106.99 446.84 111.84 457.5 117.7 467.91 124.5 477.99 132.1 487.68 140.31 496.96 148.89 505.76 157.56 514.06 166.04 521.83 174.04 535.48 187.13 547.55 197.06 569.92 202.99 579.93 204.27 587.25 209.16 595.34 217.63 600.04 224.08 605.23 231.7 610.98 240.29 617.35 249.58 617.15 258.63 619.66 267.69 624.72 276.74 631.92 285.79 640.73 294.84 650.47 303.9 660.4 312.95 669.77 322 677.86 331.06 684.06 340.11 687.9 349.16 689.09 358.22 687.53 367.27 683.34 376.32 676.85 385.37 668.54 394.43 659.05 403.48 649.1 412.53 639.45 421.59 630.82 430.64 623.89 439.69 619.16 448.74 617.01 457.8 617.59 466.85 620.87 475.9 626.59 484.96 634.32 494.01 643.46 503.06 653.34 512.11 663.18 521.17 657.66 535.44 638.94 542.81 629.85 550.19 620.17 559.54 609.95 570.53 599.25 582.76 588.14 595.68 576.69 608.74 564.98 621.33 553.09 632.91 541.1 642.96 529.1 651.09 517.17 657.04 505.38 660.69 493.8 662.07 482.51 661.38 471.56 658.97 461 655.31 450.87 650.95 441.21 646.51 423.58 640.67 407.42 639.7 400.17 642.99 393.35 648.74 386.92 656.87 380.85 667.17 371.89 670.3 363.36 674.54 347.77 683.47 333.37 690.14 320.62 688.12 308.61 679.22 302.92 670.76 297.33 660.36 291.78 648.44 286.22 635.51 280.6 622.17 274.89 609.02 269.03 596.65 262.99 585.59 256.74 576.27 250.25 569.01 236.37 562.18 221.68 561.46 213.88 563.91 205.82 567.25 197.54 570.94 189.05 574.39 180.38 577.06 171.56 578.47 157.18 572.37 149.5 557.07 147.07 547.6 144.63 538.14 142.38 528.67 140.47 519.21 139.06 509.74 138.26 500.28 138.11 490.81 138.64 481.35 139.81 471.88 141.52 462.42 143.64 452.95 146.03 443.49 148.48 434.02 150.82 424.56 152.87 415.09 154.47 405.62 155.5 396.16 155.88 386.69 155.59 377.23 154.65 367.76 153.12 358.3 151.12 348.83 148.81 339.37 146.36 329.9 143.96 320.43 141.79 310.97 140.01 301.5 138.77 292.04 138.15 282.57 138.2 273.11 145.98 266.78 153.96 259.29 162.16 250.85 170.59 241.76 179.25 232.33 188.13 222.9 197.24 213.81 206.55 205.37 216.03 197.82 225.68 191.36 235.45 186.1 245.31 182.06 255.21 179.18 265.12 177.32 274.99 176.28 284.77 175.8 294.42 175.58 303.89 175.33 313.13 174.74 322.11 173.56 330.8 171.55 339.15 168.56 347.14 164.51 354.77 159.38 362.01 153.23 368.86 146.2 375.34 138.48 381.45 130.29 387.22 121.89 392.68 113.57 400.36 101.83 402.84 98.11" stroke-dasharray="3 2" transform="rotate(12.12, 400, 400)" opacity="0.16"></path><path d="M411.01 110.48Q431.46 115.1 451.06 123.16 469.44 134.98 486.25 149.94 501.26 166.57 514.39 182.93 525.65 197.06 535.23 207.49 550.55 214.86 564.76 215.96 572.66 217.9 581.95 223.71 593.1 234.27 606.51 249.26 611.96 266.36 625.63 283.46 643.78 300.56 661.44 317.66 673.78 334.76 677.42 351.86 671.37 368.96 657.29 386.06 639.02 403.16 621.56 420.26 609.7 437.36 606.67 454.46 613.31 471.56 627.79 488.65 646.16 505.75 663.4 522.85 654.29 521.26 643.02 526.29 629.41 539.01 613.46 558.58 595.34 582.42 575.37 606.82 553.98 627.83 531.69 642.3 509.05 648.65 486.61 647.32 464.88 640.69 444.29 632.52 425.15 627.04 407.67 627.86 391.91 637.11 377.81 654.8 363.28 661.56 350.21 670.28 338.36 676.63 327.38 676.92 316.92 669.04 306.58 652.94 296.02 630.59 284.89 605.47 272.96 581.69 260.06 562.93 246.11 551.56 231.12 548.09 215.19 551.05 198.5 557.43 181.26 563.43 163.71 565.42 159.1 547.4 154.19 529.38 150.32 511.36 148.54 493.34 149.35 475.32 152.52 457.3 157.19 439.28 162.07 421.25 165.84 403.23 167.46 385.21 166.48 367.19 163.18 349.17 158.46 331.15 153.61 313.12 149.96 295.1 148.5 277.08 163.08 261.07 178.46 242.97 194.72 225.14 211.88 209.82 229.86 198.53 248.51 191.76 267.6 188.87 286.84 188.28 305.91 187.91 324.46 185.69 342.17 180.11 358.74 170.51 373.98 157.27 387.76 141.65 400.07 125.43 411.01 110.48 411.01 110.48 411.01 110.48" stroke-dasharray="6 5" transform="rotate(16.16, 400, 400)" opacity="0.20"></path><path d="M417.57 122.85Q435.67 127.07 452.58 134.5 468.05 145.48 481.92 159.53 494.12 175.45 504.72 191.55 513.88 206.01 521.88 217.36 536.06 226.89 550.74 228.48 559.6 228.76 570.05 231.75 582.43 238.77 596.96 250.27 605 266.43 619.53 282.59 636.92 298.75 652.83 314.91 663.29 331.07 665.68 347.23 659.4 363.38 646.03 379.54 628.9 395.7 612.3 411.86 600.36 428.02 596.08 444.18 600.52 460.34 612.57 476.5 629.23 492.66 646.32 508.82 638.74 511.64 629.45 521.25 618.2 537.5 604.88 558.7 589.51 582 572.25 604 553.37 621.53 533.24 632.4 512.29 635.89 490.98 632.97 469.77 626.11 449.11 618.71 429.36 614.39 410.81 616.11 393.67 625.49 378.02 642.44 366.18 648.61 355.39 656.74 345.35 663.06 335.7 664.3 326.1 658.41 316.23 644.96 305.79 625.24 294.56 601.94 282.38 578.49 269.19 558.32 254.99 544.01 239.85 536.81 223.92 536.31 207.39 540.62 190.48 546.79 173.41 551.52 168.47 534.47 163.66 517.42 160.18 500.37 158.9 483.32 160.14 466.27 163.59 449.22 168.38 432.17 173.33 415.13 177.19 398.08 179 381.03 178.31 363.98 175.29 346.93 170.7 329.88 165.67 312.83 161.48 295.78 159.16 278.73 172.57 261.6 186.68 244 201.6 228.03 217.4 215.35 234.07 206.82 251.53 202.37 269.61 200.96 288.11 200.96 306.76 200.43 325.26 197.65 343.29 191.45 360.55 181.48 376.78 168.24 391.77 152.96 405.38 137.28 417.57 122.85 417.57 122.85 417.57 122.85" stroke-dasharray="3 7" transform="rotate(20.200000000000003, 400, 400)" opacity="0.24"></path><path d="M421.56 135.22Q436.96 139.05 451.03 145.87 463.69 156 474.9 169.12 484.75 184.24 493.4 199.92 501.1 214.53 508.17 226.63 522.28 238.56 538.16 241.53 548.11 240.88 559.71 241.71 573.19 245.54 588.63 253.35 598.64 268.65 613.5 283.95 629.83 299.25 643.94 314.55 652.6 329.85 653.86 345.15 647.44 360.45 634.78 375.75 618.76 391.05 603.03 406.35 591.15 421.65 585.81 436.94 588.24 452.24 597.88 467.54 612.54 482.84 628.89 498.14 622.42 505.56 614.72 519.09 605.48 537.71 594.5 559.26 581.7 580.98 567.12 599.98 550.87 613.91 533.19 621.42 514.38 622.47 494.79 618.4 474.8 611.59 454.81 605.09 435.18 601.91 416.24 604.43 398.27 613.88 381.44 630.07 371.75 635.69 362.63 643.21 353.77 649.43 344.85 651.46 335.59 647.33 325.73 636.39 315.09 619.35 303.53 598.21 290.98 575.73 277.46 554.92 263.03 538.39 247.81 527.81 231.97 523.62 215.71 524.92 199.23 529.72 182.75 535.33 177.67 519.29 173.11 503.24 170.11 487.2 169.36 471.16 171.01 455.12 174.71 439.07 179.6 423.03 184.58 406.99 188.52 390.94 190.52 374.9 190.12 358.86 187.43 342.81 183.04 326.77 177.96 310.72 173.34 294.68 170.23 278.64 182.5 261.57 195.36 245.48 208.93 231.99 223.32 222.18 238.57 216.3 254.65 213.81 271.48 213.5 288.92 213.74 306.77 212.84 324.8 209.4 342.73 202.59 360.27 192.3 377.16 179.12 393.13 164.23 407.98 149.1 421.56 135.22 421.56 135.22 421.56 135.22" stroke-dasharray="6 3" transform="rotate(24.24, 400, 400)" opacity="0.28"></path><path d="M422.39 147.59Q435.05 151.05 446.47 157.26 456.66 166.56 465.71 178.72 473.8 192.96 481.14 208.07 488.03 222.63 494.77 235.29 501.72 245.02 509.23 251.31 517.64 254.28 527.23 254.71 538.27 253.88 550.92 253.34 565.28 254.63 581.36 259 592.73 273.52 607.44 288.04 622.47 302.56 634.74 317.09 641.72 331.61 641.98 346.13 635.47 360.65 623.52 375.17 608.6 389.7 593.75 404.22 582.04 418.74 575.85 433.26 576.48 447.78 583.77 462.3 596.25 476.82 611.34 491.34 605.64 502.87 599.12 519.26 591.49 538.91 582.49 559.62 571.98 578.92 559.89 594.55 546.24 604.94 531.12 609.44 514.72 608.53 497.28 603.69 479.08 597.21 460.43 591.68 441.66 589.6 423.08 592.83 404.97 602.28 387.58 617.7 379.33 622.79 371.18 629.71 362.86 635.75 354.11 638.4 344.73 635.83 334.56 627.21 323.49 612.84 311.48 594.09 298.53 573.12 284.71 552.44 270.14 534.49 254.95 521.15 239.34 513.4 223.48 511.19 207.56 513.42 191.77 518.2 186.73 503.17 182.56 488.13 180.13 473.1 179.92 458.06 181.98 443.02 185.89 427.99 190.85 412.95 195.84 397.92 199.83 382.88 202 367.84 201.91 352.81 199.58 337.77 195.49 322.73 190.47 307.7 185.55 292.66 181.75 277.62 192.94 261.78 204.59 248 216.84 237.4 229.8 230.44 243.56 226.91 258.15 225.98 273.53 226.34 289.65 226.5 306.37 225.04 323.51 220.89 340.88 213.51 358.22 202.96 375.29 189.91 391.82 175.45 407.59 160.91 422.39 147.59 422.39 147.59 422.39 147.59" stroke-dasharray="2 6" transform="rotate(28.28, 400, 400)" opacity="0.32"></path><path d="M419.95 159.96Q430.13 163.07 439.31 168.69 447.57 177.16 455.09 188.34 462.07 201.62 468.76 216.03 475.42 230.35 482.34 243.35 489.82 253.99 498.11 261.6 507.46 266.03 518.07 267.63 530.09 267.29 543.59 266.22 558.57 265.81 574.98 267.37 587.1 281.19 601.24 295 614.78 308.82 625.22 322.63 630.64 336.45 630.03 350.26 623.51 364.08 612.27 377.89 598.41 391.71 584.46 405.53 573.02 419.34 566.18 433.16 565.22 446.97 570.31 460.79 580.51 474.61 593.93 488.42 588.66 503.07 582.96 520.96 576.53 540.35 569.12 559.17 560.54 575.44 550.66 587.57 539.41 594.64 526.8 596.57 512.9 594.16 497.84 588.96 481.82 583 465.04 578.5 447.77 577.45 430.25 581.3 412.76 590.69 395.53 605.33 387.98 609.92 380.13 616.25 371.78 622.05 362.75 625.16 352.93 623.92 342.23 617.42 330.63 605.63 318.15 589.43 304.86 570.38 290.87 550.53 276.3 532.01 261.31 516.68 246.07 505.85 230.76 500.07 215.53 499.01 200.53 501.57 195.73 487.51 192.08 473.46 190.26 459.4 190.6 445.34 193.05 431.29 197.14 417.23 202.13 403.17 207.09 389.12 211.11 375.06 213.45 361.01 213.66 346.95 211.73 332.89 207.99 318.84 203.15 304.78 198.09 290.72 193.75 276.67 203.93 263.01 214.44 252.09 225.42 244.47 237 240.14 249.27 238.55 262.3 238.7 276.12 239.32 290.71 239.13 306 236.97 321.91 232.09 338.27 224.18 354.91 213.46 371.62 200.6 388.18 186.63 404.36 172.71 419.95 159.96 419.95 159.96 419.95 159.96" stroke-dasharray="3 3" transform="rotate(32.32, 400, 400)" opacity="0.35"></path><path d="M414.58 172.34Q422.79 175.11 430.31 180.16 437.3 187.81 443.94 198 450.44 210.28 457.03 223.87 463.95 237.74 471.42 250.84 479.66 262.15 488.86 270.95 499.16 276.85 510.68 279.9 523.48 280.6 537.55 279.8 552.86 278.62 569.28 278.26 581.6 291.42 594.81 304.58 606.73 317.74 615.4 330.91 619.38 344.07 618.02 357.23 611.54 370.39 601.02 383.56 588.18 396.72 575.15 409.88 564.07 423.05 556.77 436.21 554.46 449.37 557.51 462.54 565.43 475.7 576.9 488.86 571.78 505.28 566.55 523.28 560.94 541.21 554.72 557.35 547.66 570.27 539.62 578.97 530.48 583.08 520.16 582.93 508.68 579.5 496.06 574.26 482.4 569 467.84 565.55 452.53 565.46 436.67 569.84 420.47 579.1 404.14 592.95 396.62 597.07 388.51 602.82 379.7 608.32 370.09 611.75 359.65 611.62 348.36 607.01 336.26 597.66 323.42 584.04 309.93 567.25 295.93 548.82 281.55 530.53 266.94 514.09 252.26 500.91 237.64 491.9 223.23 487.33 209.13 486.79 204.74 473.66 201.71 460.53 200.54 447.4 201.43 434.28 204.22 421.15 208.45 408.02 213.44 394.9 218.35 381.77 222.37 368.64 224.85 355.52 225.37 342.39 223.85 329.26 220.53 316.14 215.97 303.01 210.92 289.88 206.21 276.76 215.48 265.94 224.95 258.09 234.75 253.3 245.01 251.2 255.84 251.04 267.33 251.78 279.53 252.3 292.48 251.51 306.16 248.57 320.53 242.97 335.52 234.61 351 223.8 366.82 211.22 382.82 197.77 398.81 184.49 414.58 172.34 414.58 172.34 414.58 172.34" stroke-dasharray="3 4" transform="rotate(36.36, 400, 400)" opacity="0.39"></path><path d="M407.08 184.7Q420.39 192.83 433.2 207.72 439.76 218.95 446.7 231.6 454.2 244.85 462.43 257.79 471.53 269.51 481.6 279.27 492.73 286.54 504.95 291.15 518.26 293.27 532.62 293.41 547.92 292.36 564.05 291.1 576.06 303.64 588.05 316.18 598.28 328.71 605.25 341.25 607.94 353.79 605.96 366.33 599.59 378.87 589.76 391.4 577.93 403.94 565.81 416.48 555.18 429.02 547.6 441.56 544.17 454.1 545.4 466.64 551.11 479.18 560.46 491.71 555.27 508.43 550.23 525.25 545.1 540.77 539.67 553.75 526.72 566.83 511.37 568.69 502.05 564.67 491.73 559.69 480.43 555.27 468.2 552.85 455.13 553.65 441.33 558.45 426.95 567.53 412.14 580.58 404.13 584.25 395.39 589.44 385.89 594.6 375.59 598.21 364.52 598.98 352.72 596.01 340.26 588.91 327.24 577.84 313.77 563.48 299.99 546.95 286.01 529.62 271.98 512.96 258.02 498.31 244.24 486.75 230.76 478.91 217.65 474.93 213.83 462.67 211.5 450.41 211 438.15 212.4 425.89 215.49 413.63 219.83 401.36 224.77 389.1 229.6 376.84 233.61 364.58 236.21 352.32 237.02 340.06 235.92 327.8 233.08 315.54 228.9 303.28 224.01 291.02 219.11 278.76 227.57 271.08 236.11 266.19 244.85 263.83 253.91 263.42 263.4 264.12 273.41 265 284.03 265.07 295.31 263.53 307.28 259.76 319.95 253.5 333.29 244.77 347.25 233.97 361.73 221.73 376.62 208.87 391.79 196.25 407.08 184.7 407.08 184.7 407.08 184.7" stroke-dasharray="7 8" transform="rotate(40.400000000000006, 400, 400)" opacity="0.43"></path><path d="M398.55 197.07Q410.95 204.25 423.76 217.51 430.76 227.66 438.33 239.29 446.58 251.76 455.61 264.3 465.51 276.13 476.31 286.55 488.04 294.99 500.69 301.11 514.21 304.84 528.52 306.39 543.51 306.24 559.05 305.07 570.31 316.99 580.88 328.9 589.41 340.82 594.79 352.73 596.33 364.65 593.84 376.56 587.63 388.48 578.51 400.39 567.64 412.31 556.44 424.22 546.33 436.14 538.63 448.06 534.33 459.97 533.97 471.89 537.62 483.8 544.78 495.72 539.38 511.35 534.3 525.94 529.36 538.44 524.37 548.06 513.32 555.55 500.72 554.01 493.23 549.81 484.93 545.33 475.8 541.82 465.82 540.41 455.03 541.99 443.47 547.12 431.21 555.96 418.36 568.21 409.58 571.45 400.07 576.09 389.83 580.88 378.91 584.56 367.35 586.02 355.24 584.44 342.66 579.35 329.71 570.7 316.52 558.85 303.19 544.54 289.84 528.78 276.58 512.73 263.5 497.57 250.71 484.35 238.25 473.9 226.2 466.69 223.09 455.23 221.51 443.76 221.66 432.3 223.53 420.84 226.88 409.38 231.27 397.92 236.14 386.45 240.86 374.99 244.82 363.53 247.52 352.07 248.6 340.61 247.93 329.15 245.59 317.69 241.89 306.22 238.73 286.71 247.89 276.33 263.84 276.68 280.65 278.11 289.78 277.5 299.46 275.09 309.73 270.51 320.64 263.66 332.19 254.69 344.39 243.99 357.19 232.17 370.54 219.92 384.36 207.99 398.55 197.07 398.55 197.07 398.55 197.07" stroke-dasharray="3 2" transform="rotate(44.44, 400, 400)" opacity="0.47"></path><path d="M390.22 209.44Q402.77 215.71 416.35 227.39 424.01 236.46 432.3 247 441.29 258.52 451.03 270.44 461.54 282.09 472.83 292.85 484.88 302.16 497.63 309.59 511.03 314.91 524.97 318.12 539.36 319.4 554.05 319.17 564.22 330.44 573.24 341.71 580.09 352.98 584.02 364.25 584.57 375.52 581.68 386.79 575.69 398.06 567.25 409.33 557.33 420.6 547.03 431.87 537.52 443.14 529.85 454.41 524.9 465.68 523.22 476.95 524.99 488.22 530.03 499.49 524.32 512.93 519.05 524.58 501.77 540.55 488.69 539.08 475.64 531.87 460.7 528.23 452.02 530.49 442.65 535.86 432.59 544.4 421.9 555.84 412.31 558.68 402.09 562.8 391.28 567.18 379.95 570.81 368.17 572.78 356.03 572.34 343.63 569 331.05 562.57 318.4 553.2 305.77 541.3 293.26 527.56 280.95 512.83 268.9 498.06 257.19 484.18 245.85 472.03 234.91 462.25 232.58 451.52 231.76 440.8 232.54 430.08 234.83 419.36 238.37 408.63 242.77 397.91 247.53 387.19 252.11 376.47 256.01 365.74 258.78 355.02 260.11 344.3 259.86 333.58 258.05 322.86 254.88 312.13 259.6 291.99 274.35 290.06 289.24 290.17 305.09 286.1 313.77 280.77 322.96 273.45 332.72 264.34 343.08 253.86 354.02 242.52 365.55 230.94 383.93 214.58 390.22 209.44" stroke-dasharray="10 7" transform="rotate(48.48, 400, 400)" opacity="0.51"></path><path d="M383.33 221.81Q396.72 227.22 411.47 237.38 419.81 245.36 428.75 254.76 438.33 265.23 448.56 276.32 459.42 287.51 470.88 298.25 482.91 308.06 495.43 316.48 508.38 323.21 521.67 328.08 535.18 331.07 548.82 332.35 557.65 342.93 565.06 353.52 570.33 364.1 572.94 374.68 572.65 385.27 569.49 395.85 563.75 406.44 556 417.02 546.99 427.6 537.59 438.19 528.71 448.77 521.22 459.36 515.85 469.94 513.1 480.53 513.26 491.11 516.3 501.7 510.27 512.22 504.73 520.64 487.74 528.23 475.85 524.09 465.1 518.2 453.12 516.32 446.25 519.15 438.82 524.65 430.82 532.84 422.23 543.47 412.02 545.94 401.35 549.55 390.28 553.51 378.88 557.01 367.22 559.31 355.4 559.76 343.49 557.89 331.57 553.45 319.72 546.4 308.02 536.95 296.53 525.51 285.31 512.64 274.41 499.05 263.85 485.48 253.68 472.68 243.89 461.29 242.39 451.26 242.32 441.23 243.66 431.21 246.3 421.18 249.98 411.15 254.33 401.12 258.94 391.09 263.37 381.07 267.17 371.04 269.99 361.01 271.54 350.98 271.68 340.96 270.4 330.93 267.81 320.9 272.36 304.25 285.74 303.7 298.72 302.32 312.24 296.48 319.5 290.51 327.14 282.85 335.22 273.75 343.79 263.58 352.87 252.8 362.49 241.92 377.99 226.62 383.33 221.81" stroke-dasharray="8 11" transform="rotate(52.52, 400, 400)" opacity="0.54"></path><path d="M378.87 234.18Q393.39 238.78 409.34 247.49 418.2 254.41 427.59 262.65 437.5 271.98 447.9 282.07 458.78 292.53 470.08 302.92 481.75 312.83 493.73 321.84 505.94 329.63 518.31 335.94 530.74 340.62 543.16 343.67 550.5 353.52 556.31 363.37 560.11 373.21 561.58 383.06 560.6 392.91 557.25 402.76 551.82 412.61 544.74 422.45 536.61 432.3 528.1 442.15 519.9 452 512.71 461.84 507.12 471.69 503.58 481.54 499.87 499.97 491.51 513.82 474.23 514.83 462.81 509.22 445.86 506.42 432.32 513.5 426.04 521.29 419.31 531.1 408.85 533.23 398.12 536.35 387.18 539.88 376.09 543.17 364.93 545.64 353.77 546.74 342.66 546.06 331.67 543.32 320.85 538.38 310.26 531.28 299.94 522.24 289.92 511.58 280.22 499.78 270.88 487.37 261.88 474.94 253.24 463.05 252.58 453.69 253.2 444.34 255.04 434.98 257.95 425.62 261.69 416.26 265.96 406.9 270.39 397.55 274.62 388.19 278.3 378.83 281.13 369.47 282.87 360.11 283.38 350.75 282.62 341.4 280.64 332.04 294.42 316.95 309.16 314.5 320.91 305.43 333.22 291.88 339.83 282.91 346.79 273.16 354.14 263.01 361.92 252.87 374.52 238.66 378.87 234.18" stroke-dasharray="8 4" transform="rotate(56.56, 400, 400)" opacity="0.58"></path><path d="M377.51 246.56Q392.83 249.81 409.84 257.75 428.49 270.72 448.63 287.82 469.97 307.05 492.12 325.82 514.6 341.57 536.88 352.43 546.96 370.55 549.93 388.66 544.99 406.78 533.49 424.9 518.56 443.01 504.3 461.13 494.61 479.24 492.14 497.36 479.54 504.14 468.62 504.43 458.99 500.21 450.19 494.64 441.72 491.29 433.08 493.27 423.82 502.39 413.56 518.72 392.96 523.2 372.19 529.32 351.68 533.36 331.79 532.23 312.82 524.16 295 509.16 278.41 488.92 263.07 466.4 264.44 449.02 269.78 431.64 277.64 414.25 285.87 396.87 292.22 379.49 294.94 362.11 293.3 344.73 287.74 327.34 299.32 329.56 310.12 329.46 320.44 324.98 330.62 315.2 341.03 300.55 352.08 282.62 364.14 263.79 377.51 246.56 377.51 246.56 377.51 246.56" stroke-dasharray="7 10" transform="rotate(60.599999999999994, 400, 400)" opacity="0.62"></path><path d="M379.43 258.93Q395.37 261.59 412.58 268.15 430.92 279.01 450.18 293.69 470.06 310.87 490.21 328.68 510.27 345.07 529.81 358.23 536.99 374.68 538.03 391.13 532.71 407.58 522.23 424.03 508.98 440.48 495.95 456.92 486.12 473.37 481.7 489.82 468.88 491.93 457.58 489.63 447.58 484.97 438.59 480.53 430.28 478.9 422.28 482.15 414.24 491.34 405.82 506.35 386.71 510.12 367.92 515.48 349.74 519.69 332.39 520.27 316.04 515.56 300.77 505 286.6 489.26 273.47 470.04 276.05 454.03 281.79 438.01 289.39 421.99 297.13 405.97 303.24 389.95 306.35 373.93 305.74 357.92 301.55 341.9 312.51 342.92 322.66 340.78 332.18 334.37 341.29 323.49 350.26 308.86 359.41 291.96 369.03 274.68 379.43 258.93 379.43 258.93 379.43 258.93" stroke-dasharray="6 3" transform="rotate(64.64, 400, 400)" opacity="0.66"></path><path d="M384.37 271.3Q400.24 273.43 416.92 278.72 434.23 287.58 451.96 299.81 469.87 314.63 487.67 330.78 505.09 346.77 521.85 361.09 526.4 375.81 525.89 390.53 520.41 405.24 510.98 419.96 499.34 434.68 487.63 449.39 478.03 464.11 472.29 478.83 459.53 477.74 448.05 474.21 437.75 470 428.48 467.02 420.03 467.02 412.17 471.27 404.66 480.34 397.24 493.98 380.35 497.09 364.07 501.69 348.56 505.79 333.91 507.53 320.2 505.48 307.43 498.85 295.56 487.66 284.5 472.65 288.04 458.06 293.97 443.46 301.2 428.87 308.39 414.27 314.21 399.68 317.59 385.08 317.91 370.49 315.1 355.9 325.49 354.95 335.11 350.65 344.05 342.62 352.43 331.09 360.44 316.87 368.29 301.2 380.27 278.42 384.37 271.3" stroke-dasharray="8 1" transform="rotate(68.68, 400, 400)" opacity="0.70"></path><path d="M391.59 283.67Q406.62 285.31 422.04 289.46 437.68 296.48 453.38 306.32 468.93 318.6 484.16 332.55 498.88 347.19 512.92 361.43 515.21 374.38 513.52 387.33 508.09 400.29 499.73 413.24 489.64 426.19 479.32 439.15 470.26 452.1 463.8 465.06 451.42 462.33 440.06 458.74 429.67 455.62 420.19 454.24 411.53 455.68 403.55 460.64 396.12 469.37 389.06 481.61 374.88 484.12 361.39 487.96 348.66 491.74 336.71 494.15 325.54 494.03 315.11 490.62 305.36 483.58 296.2 473.06 300.41 459.97 306.32 446.87 313.06 433.77 319.64 420.68 325.1 407.58 328.64 394.49 329.75 381.39 328.25 368.3 338.07 365.09 347.2 358.89 355.68 349.72 363.58 338.04 370.99 324.59 378.03 310.35 388.22 290.02 391.59 283.67" stroke-dasharray="5 4" transform="rotate(72.72, 400, 400)" opacity="0.73"></path><path d="M400.04 296.04Q413.52 297.26 427.06 300.4 440.55 305.74 453.86 313.34 466.87 323.05 479.46 334.46 491.53 347.01 502.98 359.99 503.46 371.18 500.96 382.37 495.77 393.57 488.47 404.76 479.88 415.95 470.97 427.15 462.73 438.34 456.1 449.53 444.45 446.55 433.54 443.79 423.37 442.11 413.93 442.28 405.18 444.87 397.07 450.24 389.53 458.44 382.48 469.24 371.18 471.21 360.51 474.31 350.48 477.62 341.06 480.26 324.13 479.08 308.58 470.41 313.15 458.89 318.83 447.37 324.98 435.85 330.89 424.33 335.93 412.81 339.5 401.29 341.22 389.78 340.9 378.26 350.07 373 358.68 365.41 366.74 355.73 374.26 344.42 381.29 332.08 387.87 319.43 397.07 301.62 400.04 296.04" stroke-dasharray="9 4" transform="rotate(76.76, 400, 400)" opacity="0.77"></path><path d="M408.48 308.41Q419.87 309.27 431.12 311.53 442.17 315.4 452.94 320.97 463.37 328.22 473.4 336.97 482.96 346.96 492.03 357.79 491.17 367.26 488.23 376.72 483.44 386.18 477.21 395.65 470.06 405.11 462.56 414.58 455.36 424.04 449.03 433.5 438.45 431.29 428.35 429.87 418.76 429.7 409.69 431.19 401.15 434.6 393.11 440.06 385.56 447.54 378.46 456.87 362.1 460.93 347.09 466.03 330.1 460.95 331.49 444.52 336.94 434.64 342.15 424.76 346.68 414.88 350.16 405 352.3 395.12 352.93 385.23 361.34 378.55 369.33 370.3 376.89 360.76 384.02 350.31 390.71 339.39 397.01 328.46 405.7 313.2 408.48 308.41" stroke-dasharray="4 8" transform="rotate(80.80000000000001, 400, 400)" opacity="0.81"></path><path d="M415.69 320.79Q433.45 322.86 450.27 329.29 465.89 340.52 480.11 355.97 475.35 371.54 465.96 387.11 454.08 402.68 442.41 418.25 424.26 417.4 407.34 421.01 391.78 430.08 377.59 444.49 365.67 447.34 354.82 451.62 344.54 446.55 353.4 421.88 360.61 405.48 364.27 389.08 378.96 373.73 392.46 355.83 404.69 337.46 415.69 320.79 415.69 320.79 415.69 320.79" stroke-dasharray="7 1" transform="rotate(84.84, 400, 400)" opacity="0.85"></path><path d="M420.59 333.16Q433.52 334.4 445.67 338.37 456.95 345.46 467.3 355.63 462.35 367.96 454.7 380.29 445.49 392.61 436.07 404.94 421 406.69 406.57 411.73 392.88 420.29 380 432.12 360.74 433.15 364.66 416.1 370.85 403.09 374.86 390.08 387.44 376.03 399.3 361.1 410.36 346.45 420.59 333.16 420.59 333.16 420.59 333.16" stroke-dasharray="9 1" transform="rotate(88.88, 400, 400)" opacity="0.89"></path><path d="M422.49 345.53Q438.85 349.11 453.71 357.71 449.26 366.89 443.45 376.08 436.78 385.26 429.8 394.45 418.24 397.92 406.94 403.33 395.96 410.67 385.34 419.75 376.66 409.5 384.68 388.88 394.7 377.58 404.38 366.27 418.07 350.48 422.49 345.53" stroke-dasharray="5 4" transform="rotate(92.92, 400, 400)" opacity="0.92"></path><path d="M421.09 357.9Q431.45 366.99 423.42 387.28 407.95 395.75 392.82 407.39 386.63 404.09 393.72 386.47 407.68 371.48 421.09 357.9 421.09 357.9 421.09 357.9" stroke-dasharray="9 6" transform="rotate(96.96, 400, 400)" opacity="0.96"></path></g></svg>