<svg xmlns="http://www.w3.org/2000/svg" version="1.1" xmlns:xlink="http://www.w3.org/1999/xlink" xmlns:svgjs="http://svgjs.dev/svgjs" viewBox="0 0 800 800" opacity="0.68"><g stroke-width="2" stroke="#f41415" fill="none" stroke-linecap="round"><path d="M379.87 82.15Q387.61 87.69 395.46 92.49 403.43 96.54 411.55 99.89 419.82 102.62 428.25 104.86 436.85 106.77 445.63 108.53 454.61 110.35 463.77 112.42 473.14 114.94 482.71 118.07 492.48 121.96 502.45 126.68 512.63 132.31 523 138.82 533.57 146.16 544.32 154.22 555.25 162.85 566.35 171.86 577.6 181.02 589 190.1 600.52 198.87 612.16 207.11 623.89 214.62 635.69 221.24 647.55 226.88 659.45 231.48 671.36 235.05 683.26 237.66 695.13 239.44 706.96 240.58 711.82 251.02 715.99 261.46 719.36 271.9 721.84 282.34 723.35 292.77 723.87 303.21 723.37 313.65 721.87 324.09 719.41 334.52 716.06 344.96 711.9 355.4 707.05 365.84 701.63 376.28 695.79 386.71 689.7 397.15 683.5 407.59 677.37 418.03 671.47 428.47 665.96 438.9 660.99 449.34 656.69 459.78 653.17 470.22 650.53 480.66 648.84 491.1 648.14 501.53 648.46 511.97 649.78 522.41 652.07 532.85 655.28 543.29 659.3 553.72 664.04 564.16 669.36 574.6 663.44 586.7 657.54 597.91 651.63 607.89 645.69 616.33 633.61 626.93 621.28 632.04 608.33 629.7 594.93 624.82 580.65 620.13 565.79 618.24 558.01 619.86 550.02 623.37 541.82 628.89 533.42 636.41 524.81 645.82 515.99 656.9 506.99 669.31 497.79 682.65 488.41 696.44 478.86 710.2 469.15 723.4 459.3 735.58 449.3 746.32 439.18 755.28 428.95 762.21 418.62 766.98 410.24 758.94 401.68 748.96 392.97 737.36 384.09 724.52 375.06 710.89 365.88 696.98 356.57 683.3 347.12 670.33 337.55 658.53 327.88 648.25 318.1 639.79 308.24 633.31 298.31 628.87 288.31 626.4 278.26 625.73 268.18 626.58 258.08 628.58 247.96 631.3 237.84 634.28 227.74 637.05 217.67 639.15 207.62 640.17 197.62 639.76 187.68 637.66 177.8 633.72 167.99 627.89 158.25 620.23 148.6 610.91 139.03 600.18 129.55 588.39 120.16 575.93 110.87 563.23 109.86 552.93 108.97 542.63 108.21 532.34 107.61 522.04 107.18 511.74 106.93 501.45 106.87 491.15 107 480.85 107.32 470.55 107.82 460.26 108.48 449.96 109.29 439.66 110.23 429.37 111.26 419.07 112.37 408.77 113.53 398.48 114.69 388.18 115.84 377.88 116.94 367.59 117.96 357.29 118.87 346.99 119.65 336.69 120.28 326.4 120.75 316.1 121.03 305.8 121.12 295.51 121.03 285.21 120.74 274.91 120.27 264.62 119.64 254.32 122.73 238.54 135.19 232.1 143.67 230.62 152.06 228.41 160.36 225.33 168.57 221.26 176.7 216.17 184.74 210.07 192.71 203.04 200.62 195.21 208.47 186.75 216.27 177.87 224.03 168.79 231.76 159.75 239.47 150.96 247.18 142.64 254.9 134.95 262.63 128.02 270.4 121.95 278.22 116.75 294.07 109.21 310.18 103.67 326.82 99.81 343.86 95.84 352.62 93.33 361.54 90.27 375.25 84.36 379.87 82.15" stroke-dasharray="6 10" transform="rotate(0, 400, 400)" opacity="0.05"></path><path d="M378.26 95.31Q386.01 100.67 393.89 105.31 401.9 109.23 410.06 112.47 418.37 115.1 426.84 117.25 435.49 119.04 444.3 120.65 453.3 122.25 462.47 124.03 471.83 126.17 481.37 128.84 491.09 132.16 500.98 136.26 511.06 141.18 521.3 146.97 531.7 153.58 542.25 160.96 552.95 168.98 563.78 177.49 574.73 186.31 585.79 195.23 596.94 204.04 608.17 212.53 619.46 220.49 630.79 227.75 642.15 234.17 653.51 239.66 664.86 244.16 676.18 247.68 687.45 250.28 698.65 252.07 702.88 262.2 706.41 272.34 709.17 282.47 711.09 292.61 712.1 302.74 712.21 312.88 711.39 323.01 709.66 333.15 707.08 343.29 703.71 353.42 699.62 363.56 694.93 373.69 689.74 383.83 684.19 393.96 678.41 404.1 672.54 414.23 666.73 424.37 661.13 434.5 655.88 444.64 651.09 454.78 646.9 464.91 643.4 475.05 640.69 485.18 638.82 495.32 637.86 505.45 637.81 515.59 638.68 525.72 640.45 535.86 643.07 546 646.49 556.13 650.61 566.27 655.34 576.4 649.51 586.88 643.72 596.18 632.17 609.44 620.57 617.7 608.7 618.2 596.57 615.3 583.85 610.21 570.71 606.19 556.77 607.59 542.3 613.86 534.75 620.16 527.01 628.24 519.09 637.96 510.98 649.09 502.69 661.3 494.21 674.21 485.57 687.41 476.75 700.44 467.77 712.87 458.64 724.29 449.37 734.34 439.95 742.73 430.42 749.25 420.77 753.81 412.35 746.15 403.78 736.71 395.07 725.77 386.21 713.64 377.22 700.74 368.1 687.49 358.87 674.35 349.53 661.73 340.09 650.06 330.57 639.69 320.98 630.87 311.32 623.82 301.61 618.61 291.86 615.25 282.08 613.62 272.28 613.54 262.48 614.72 252.69 616.82 242.91 619.45 233.16 622.2 223.44 624.65 213.77 626.42 204.15 627.15 194.6 626.54 185.11 624.39 175.69 620.55 166.35 614.98 157.09 607.74 147.92 598.98 138.83 588.9 129.84 577.8 120.92 566.03 119.95 556.02 119.09 546 118.39 535.99 117.84 525.98 117.48 515.97 117.3 505.96 117.31 495.95 117.51 485.94 117.89 475.93 118.45 465.92 119.18 455.91 120.05 445.89 121.04 435.88 122.13 425.87 123.28 415.86 124.49 405.85 125.7 395.84 126.9 385.83 128.05 375.82 129.12 365.81 130.09 355.8 130.94 345.79 131.64 335.78 132.17 325.77 132.53 315.76 132.7 305.75 132.68 295.74 132.47 285.72 132.07 275.71 131.5 265.7 134.52 250.24 146.55 243.34 154.74 241.19 162.85 238.19 170.87 234.25 178.79 229.34 186.64 223.48 194.4 216.73 202.08 209.2 209.7 201.05 217.25 192.47 224.74 183.65 232.18 174.82 239.58 166.17 246.96 157.9 254.31 150.18 261.65 143.14 268.99 136.89 283.73 127.28 298.59 120.02 313.74 115.65 329.14 112.11 345.06 108.2 361.35 103.09 374 97.43 378.26 95.31" stroke-dasharray="1 9" transform="rotate(4.04, 400, 400)" opacity="0.09"></path><path d="M377.54 108.48Q385.3 113.64 393.2 118.12 401.24 121.92 409.43 125.06 417.76 127.6 426.25 129.66 434.9 131.35 443.71 132.83 452.68 134.24 461.82 135.77 471.11 137.57 480.57 139.8 490.18 142.61 499.94 146.1 509.84 150.35 519.88 155.4 530.06 161.27 540.35 167.91 550.76 175.24 561.27 183.14 571.86 191.48 582.53 200.08 593.26 208.75 604.03 217.29 614.84 225.52 625.67 233.25 636.49 240.33 647.29 246.62 658.07 252.02 668.79 256.5 679.44 260.05 690.01 262.71 693.61 272.52 696.53 282.33 698.72 292.14 700.11 301.94 700.67 311.75 700.4 321.56 699.3 331.37 697.39 341.17 694.72 350.98 691.35 360.79 687.35 370.6 682.82 380.4 677.86 390.21 672.59 400.02 667.12 409.82 661.58 419.63 656.09 429.44 650.78 439.25 645.78 449.05 641.19 458.86 637.12 468.67 633.66 478.47 630.9 488.28 628.89 498.09 627.68 507.9 627.31 517.7 627.77 527.51 629.05 537.32 631.13 547.12 633.97 556.93 637.49 566.74 641.61 576.54 630.19 591.52 618.9 602.11 599.09 603.97 584.71 600.31 572.73 595.95 560.43 593.42 547.48 596.82 534.09 604.93 527.13 611.88 520 620.4 512.72 630.31 505.26 641.38 497.64 653.31 489.86 665.74 481.91 678.3 473.8 690.6 465.54 702.26 457.12 712.94 448.56 722.32 439.86 730.16 431.03 736.3 422.08 740.65 413.65 733.35 405.09 724.44 396.4 714.14 387.6 702.72 378.68 690.54 369.66 677.96 360.55 665.38 351.36 653.17 342.09 641.71 332.77 631.32 323.39 622.26 313.97 614.74 304.52 608.86 295.05 604.68 285.57 602.14 276.09 601.12 266.63 601.42 257.18 602.76 247.76 604.85 238.38 607.33 229.05 609.85 219.77 612.03 210.54 613.55 201.39 614.1 192.3 613.43 183.29 611.35 174.35 607.74 165.5 602.57 156.73 595.87 148.05 587.75 139.44 578.4 130.92 568.05 129.99 558.34 129.19 548.63 128.55 538.93 128.08 529.22 127.79 519.51 127.69 509.8 127.77 500.09 128.04 490.39 128.5 480.68 129.12 470.97 129.91 461.26 130.83 451.55 131.87 441.84 133 432.14 134.2 422.43 135.45 412.72 136.7 403.01 137.94 393.3 139.14 383.59 140.26 373.88 141.29 364.18 142.19 354.47 142.95 344.76 143.56 335.05 143.99 325.34 144.24 315.63 144.3 305.92 144.17 296.22 143.86 286.51 143.36 276.8 146.33 261.51 157.96 253.76 165.88 250.77 173.7 246.89 181.44 242.08 189.1 236.38 196.67 229.84 204.16 222.56 211.57 214.69 218.9 206.39 226.17 197.84 233.37 189.24 240.52 180.78 247.62 172.63 254.67 164.96 261.69 157.9 275.66 146.38 289.62 137.21 303.64 131.56 317.78 127.44 332.21 124.37 346.87 120.97 369.78 112.05 377.54 108.48" stroke-dasharray="11 8" transform="rotate(8.08, 400, 400)" opacity="0.13"></path><path d="M377.72 121.66Q385.5 126.63 393.41 130.95 409.7 137.37 426.42 142.11 435.03 143.72 443.79 145.08 452.69 146.34 461.72 147.64 470.9 149.14 480.21 150.98 489.65 153.31 499.21 156.23 508.88 159.83 518.67 164.18 528.56 169.29 538.54 175.15 548.6 181.73 558.73 188.95 568.91 196.68 579.15 204.8 589.41 213.16 599.7 221.57 609.99 229.86 620.28 237.85 630.54 245.39 640.77 252.33 650.95 258.54 661.06 263.94 671.09 268.48 681.02 272.13 684.02 281.58 686.36 291.02 688 300.47 688.91 309.92 689.06 319.37 688.46 328.82 687.12 338.27 685.06 347.71 682.32 357.16 678.98 366.61 675.09 376.06 670.73 385.51 666.01 394.96 661.01 404.41 655.84 413.85 650.61 423.3 645.44 432.75 640.42 442.2 635.67 451.65 631.28 461.09 627.34 470.54 623.94 479.99 621.15 489.44 619.03 498.89 617.62 508.34 616.95 517.78 617.04 527.23 617.88 536.68 619.46 546.13 621.74 555.58 623.6 572.96 616.92 585.95 597.67 591.44 583.97 589.87 572.87 585.54 561.6 581.84 549.93 582.06 537.96 586.02 531.78 590.51 525.48 596.53 519.05 604 512.48 612.83 505.77 622.82 498.92 633.74 491.92 645.3 484.78 657.2 477.49 669.1 470.05 680.66 462.47 691.57 454.74 701.51 446.88 710.25 438.88 717.57 422.42 721.94 405.58 712.14 396.96 702.46 388.25 691.74 379.45 680.26 370.57 668.36 361.63 656.37 352.63 644.62 343.57 633.44 334.48 623.12 325.36 613.92 316.22 606.03 307.07 599.6 297.92 594.68 288.77 591.3 279.64 589.36 270.53 588.75 261.46 589.26 252.42 590.66 243.44 592.66 234.5 594.97 225.62 597.26 208.1 600.14 190.8 600.43 182.28 598.53 173.84 595.27 165.48 590.59 157.19 584.51 148.99 577.13 140.87 568.57 140 559.19 139.28 549.8 138.72 540.42 138.33 531.04 138.12 521.66 138.1 512.28 138.26 502.9 138.61 493.51 139.13 484.13 139.82 474.75 140.66 465.37 141.63 455.99 142.71 446.61 143.88 437.22 145.12 427.84 146.4 418.46 147.69 409.08 148.96 399.7 150.19 390.31 151.36 380.93 152.43 371.55 153.39 362.17 154.22 352.79 154.89 343.4 155.4 334.02 155.73 324.64 155.88 315.26 155.84 305.87 155.62 296.49 155.21 287.11 158.16 271.91 169.4 263.05 177.04 259.15 184.59 254.38 192.06 248.77 199.45 242.38 206.76 235.3 213.98 227.67 221.13 219.63 228.21 211.35 235.21 203 242.14 194.76 249.01 186.79 255.82 179.23 262.58 172.22 269.3 165.86 282.62 155.7 295.87 147.75 309.11 142.97 322.4 139.47 335.85 136.73 349.47 133.58 370.59 125.07 377.72 121.66" stroke-dasharray="2 8" transform="rotate(12.12, 400, 400)" opacity="0.16"></path><path d="M378.8 134.83Q394.46 143.76 410.61 150.26 427.27 154.58 444.43 157.39 462.08 159.62 480.18 162.37 498.69 166.65 517.55 173.3 536.7 182.75 556.07 195 575.57 209.55 595.1 225.5 614.58 241.68 633.9 256.85 652.96 269.89 671.68 279.98 675.88 298.1 677.49 316.22 676.39 334.34 672.67 352.46 666.6 370.57 658.66 388.69 649.44 406.81 639.65 424.93 630.05 443.04 621.35 461.16 614.23 479.28 609.24 497.4 606.74 515.51 606.93 533.63 609.8 551.75 615.13 569.86 604.01 577.29 593.16 579.88 582.47 578.55 571.85 574.9 561.21 570.94 550.44 568.79 539.46 570.3 528.2 576.76 516.58 588.63 504.54 605.51 492.05 626.14 479.06 648.6 465.57 670.64 451.55 690.04 437.02 704.97 422 714.3 405.25 699.83 388.18 680.71 370.87 658.71 353.37 636.07 335.77 615.07 318.12 597.68 300.5 585.26 282.96 578.31 265.57 576.42 248.36 578.39 231.39 582.38 214.68 586.28 198.26 588.01 182.14 585.91 166.32 578.99 150.8 567.03 149.38 548.98 148.61 530.92 148.56 512.87 149.23 494.81 150.56 476.75 152.47 458.7 154.79 440.64 157.36 422.59 159.98 404.53 162.44 386.47 164.56 368.42 166.18 350.36 167.18 332.3 167.47 314.25 167.04 296.19 165.92 278.13 180.86 270.96 195.51 260.59 209.84 247.37 223.86 232.15 237.58 216.05 251 200.31 264.16 186.04 277.09 174.11 289.83 164.95 302.44 158.51 314.97 154.34 327.49 151.58 340.06 149.22 352.76 146.19 372.23 138.21 378.8 134.83" stroke-dasharray="3 7" transform="rotate(16.16, 400, 400)" opacity="0.20"></path><path d="M380.75 148Q396.29 156.58 412.27 162.86 428.69 167.06 445.53 169.74 462.77 171.71 480.36 173.94 498.26 177.37 516.42 182.81 534.76 190.77 553.22 201.41 571.72 214.46 590.18 229.29 608.52 244.94 626.65 260.34 644.49 274.37 661.96 286.12 665.1 303.4 665.87 320.68 664.21 337.96 660.23 355.24 654.22 372.52 646.6 389.8 637.88 407.08 628.69 424.36 619.66 441.64 611.42 458.92 604.54 476.2 599.5 493.48 596.65 510.76 596.2 528.04 598.17 545.32 602.42 562.6 591.45 566.45 580.78 566.44 570.32 563.76 560 560.04 549.72 557.08 539.4 556.63 528.97 560.07 518.35 568.22 507.48 581.2 496.3 598.4 484.75 618.55 472.81 639.92 460.44 660.53 447.62 678.51 434.34 692.35 420.61 701.13 404.13 687.5 387.44 669.62 370.6 649 353.65 627.51 336.68 607.14 319.72 589.66 302.85 576.39 286.11 567.98 269.54 564.35 253.19 564.71 237.08 567.68 221.24 571.53 205.69 574.41 190.42 574.68 175.44 571.1 160.73 563.04 159.5 545.75 158.94 528.46 159.07 511.17 159.89 493.89 161.34 476.6 163.33 459.31 165.71 442.02 168.32 424.73 170.97 407.44 173.49 390.15 175.69 372.86 177.43 355.57 178.58 338.28 179.06 320.99 178.83 303.7 177.93 286.41 192.31 277.39 206.41 265.55 220.23 251.5 233.76 236.18 246.98 220.65 259.92 206 272.59 193.14 285.01 182.68 297.22 174.85 309.25 169.49 321.16 166.06 332.99 163.77 344.8 161.67 356.66 158.82 374.68 151.22 380.75 148" stroke-dasharray="9 5" transform="rotate(20.200000000000003, 400, 400)" opacity="0.24"></path><path d="M383.47 161.17Q398.8 169.39 414.5 175.46 430.57 179.55 446.97 182.14 463.68 183.91 480.65 185.71 497.83 188.38 515.17 192.71 532.62 199.25 550.1 208.28 567.55 219.71 584.9 233.15 602.08 247.88 619.01 263.01 635.63 277.53 651.88 290.52 654.04 306.91 654.05 323.3 651.91 339.7 647.76 356.09 641.85 372.48 634.55 388.88 626.34 405.27 617.73 421.66 609.26 438.06 601.47 454.45 594.85 470.84 589.82 487.23 586.69 503.63 585.67 520.02 586.82 536.41 590.06 552.8 579.25 553.78 568.76 552.01 558.52 548.8 548.45 545.64 538.49 544.08 528.56 545.46 518.6 550.73 508.53 560.36 498.31 574.17 487.86 591.44 477.15 610.95 466.13 631.13 454.76 650.31 443.03 666.92 430.9 679.72 418.38 687.96 402.31 675.15 386.11 658.48 369.83 639.21 353.54 618.92 337.27 599.3 321.09 581.93 305.03 568.04 289.13 558.37 273.44 553.1 257.97 551.76 242.75 553.4 227.8 556.66 213.11 559.99 198.7 561.86 184.56 560.97 170.68 556.42 169.67 539.96 169.31 523.49 169.63 507.03 170.6 490.56 172.17 474.1 174.22 457.63 176.65 441.17 179.28 424.7 181.96 408.24 184.51 391.77 186.78 375.31 188.62 358.84 189.91 342.38 190.58 325.91 190.57 309.44 189.9 292.98 203.72 282.3 217.29 269.38 230.6 254.94 243.63 239.93 256.39 225.3 268.86 211.96 281.06 200.6 293.01 191.61 304.73 185.07 316.25 180.69 327.6 177.93 338.83 176.04 349.98 174.15 361.1 171.46 377.86 164.23 383.47 161.17" stroke-dasharray="10 7" transform="rotate(24.24, 400, 400)" opacity="0.28"></path><path d="M386.86 174.33Q401.86 182.2 417.17 188.06 432.76 192.06 448.61 194.58 464.67 196.2 480.91 197.65 497.28 199.69 513.73 203.03 530.2 208.24 546.65 215.69 563.01 225.44 579.22 237.29 595.22 250.76 610.96 265.15 626.38 279.62 641.43 293.3 642.7 308.77 642.05 324.24 639.52 339.71 635.24 355.18 629.47 370.65 622.53 386.12 614.82 401.59 606.77 417.06 598.85 432.53 591.51 448 585.17 463.47 580.19 478.94 576.85 494.41 575.34 509.88 571.59 532.55 557.13 537.1 547.09 534.08 537.26 532.01 527.58 532.1 517.99 535.33 508.43 542.29 498.84 553.12 489.16 567.49 479.35 584.59 469.36 603.3 459.15 622.24 448.67 640 437.91 655.28 426.83 667.07 415.42 674.8 399.87 662.78 384.27 647.29 368.67 629.36 353.11 610.29 337.64 591.53 322.29 574.44 307.09 560.16 292.09 549.48 277.3 542.71 262.74 539.68 248.43 539.79 234.37 542.03 220.57 545.17 207.02 547.88 193.72 548.91 180.66 547.25 179.88 531.65 179.75 516.06 180.25 500.47 181.36 484.88 183.03 469.29 185.15 453.69 187.6 438.1 190.24 422.51 192.93 406.92 195.51 391.32 197.82 375.73 199.75 360.14 201.18 344.55 202.03 328.95 202.24 313.36 201.82 297.77 215.08 285.81 228.12 272.27 240.92 257.92 253.46 243.61 265.75 230.17 277.77 218.31 289.52 208.49 301.03 200.94 312.3 195.59 323.35 192.11 334.21 189.94 344.91 188.38 355.48 186.67 365.97 184.12 381.64 177.24 386.86 174.33" stroke-dasharray="5 7" transform="rotate(28.28, 400, 400)" opacity="0.32"></path><path d="M390.79 187.5Q405.34 195.01 420.13 200.66 435.13 204.56 450.3 207.03 465.61 208.56 481.03 209.74 496.5 211.25 511.98 213.74 527.43 217.76 542.8 223.7 558.04 231.77 573.1 241.91 587.93 253.85 602.49 267.09 616.73 280.97 630.62 294.76 631.1 309.29 629.88 323.81 627.04 338.33 622.7 352.86 617.1 367.38 610.53 381.91 603.31 396.43 595.81 410.96 588.43 425.48 581.54 440.01 575.49 454.53 570.6 469.05 567.1 483.58 565.2 498.1 560.49 518.8 545.9 522.24 536.07 520.03 526.47 519.42 517.05 521.29 507.75 526.29 498.54 534.7 489.36 546.46 480.15 561.09 470.89 577.81 461.52 595.58 452 613.23 442.3 629.58 432.39 643.58 422.24 654.41 411.82 661.63 396.92 650.4 382.04 636.05 367.21 619.42 352.47 601.61 337.85 583.79 323.39 567.16 309.11 552.73 295.04 541.27 281.17 533.2 267.54 528.58 254.15 527.05 241 527.96 228.08 530.37 215.4 533.2 202.94 535.35 190.69 535.8 190.17 521.11 190.25 506.43 190.93 491.75 192.18 477.07 193.93 462.38 196.1 447.7 198.56 433.02 201.2 418.33 203.88 403.65 206.47 388.97 208.82 374.29 210.82 359.6 212.38 344.92 213.39 330.24 213.83 315.56 213.66 300.88 226.35 288.14 238.86 274.5 251.15 260.69 263.2 247.44 275.02 235.42 286.6 225.12 297.92 216.85 309.01 210.67 319.85 206.43 330.48 203.73 340.89 202.06 351.13 200.78 361.2 199.22 371.15 196.79 385.89 190.25 390.79 187.5" stroke-dasharray="1 7" transform="rotate(32.32, 400, 400)" opacity="0.35"></path><path d="M395.09 200.68Q409.08 207.82 423.24 213.26 437.53 217.07 451.92 219.52 466.39 220.99 480.9 221.98 495.4 223.08 509.87 224.85 524.25 227.81 538.52 232.38 552.62 238.82 566.53 247.21 580.2 257.43 593.6 269.18 606.69 282 619.45 295.3 619.24 308.87 617.56 322.45 614.48 336.02 610.14 349.6 604.75 363.17 598.54 376.74 591.81 390.32 584.85 403.89 578 417.47 571.55 431.04 565.81 444.62 561.04 458.19 557.46 471.77 555.23 485.34 549.7 504.49 535.08 507.94 525.48 507.01 516.1 508.07 506.93 511.71 497.91 518.3 489 527.9 480.18 540.27 471.38 554.9 462.59 571.03 453.75 587.76 444.83 604.08 435.8 619.05 426.63 631.81 417.28 641.73 407.75 648.45 393.6 637.98 379.53 624.74 365.56 609.4 351.71 592.84 338.01 576.06 324.49 560.03 311.16 545.67 298.03 533.69 285.12 524.57 272.43 518.5 259.96 515.36 247.71 514.75 235.68 516.02 223.86 518.35 206.39 514.82 200.84 495.06 201.69 481.31 203.06 467.56 204.88 453.8 207.08 440.05 209.54 426.3 212.17 412.55 214.82 398.8 217.4 385.05 219.77 371.3 221.84 357.55 223.49 343.81 224.67 330.06 225.32 316.31 225.4 302.56 237.53 289.61 249.49 276.39 261.26 263.53 272.83 251.64 284.18 241.18 295.31 232.5 306.21 225.74 316.88 220.84 327.32 217.58 337.55 215.57 347.56 214.31 357.38 213.24 367.02 211.8 376.5 209.48 390.47 203.27 395.09 200.68" stroke-dasharray="0 8" transform="rotate(36.36, 400, 400)" opacity="0.39"></path><path d="M399.58 213.85Q412.9 220.62 426.31 225.84 439.8 229.57 453.33 232 466.88 233.45 480.41 234.34 493.9 235.13 507.3 236.32 520.6 238.38 533.74 241.73 546.72 246.65 559.48 253.32 572.02 261.74 584.29 271.78 596.27 283.14 607.95 295.41 607.15 308.04 605.09 320.68 601.85 333.31 597.56 345.95 592.4 358.58 586.57 371.22 580.32 383.85 573.89 396.49 567.55 409.12 561.55 421.76 556.13 434.4 551.52 447.03 547.9 459.67 545.42 472.3 539.24 490.29 524.68 494.67 515.32 495.31 506.19 498.11 497.26 503.41 488.5 511.34 479.89 521.81 471.38 534.5 462.95 548.86 454.56 564.23 446.17 579.82 437.77 594.81 429.31 608.42 420.78 620 412.13 629.04 403.36 635.28 390.07 625.56 376.9 613.38 363.85 599.29 350.95 584 338.22 568.31 325.67 553.03 313.31 538.94 301.15 526.69 289.19 516.78 277.44 509.48 265.89 504.82 254.55 502.63 243.4 502.5 232.44 503.85 216.33 500.67 211.51 482.53 212.52 469.72 214 456.91 215.88 444.1 218.09 431.29 220.54 418.48 223.13 405.67 225.75 392.86 228.3 380.05 230.68 367.24 232.78 354.43 234.53 341.62 235.85 328.81 236.69 316 237.02 303.19 248.58 290.6 259.98 278.28 271.23 266.73 282.29 256.4 293.17 247.6 303.85 240.51 314.32 235.16 324.59 231.42 334.64 229.02 344.48 227.58 354.11 226.65 363.55 225.75 372.8 224.4 381.88 222.17 395.19 216.29 399.58 213.85" stroke-dasharray="7 4" transform="rotate(40.400000000000006, 400, 400)" opacity="0.43"></path><path d="M404.1 227.02Q416.63 233.42 429.21 238.42 441.81 242.06 454.4 244.49 466.97 245.95 479.48 246.78 491.91 247.37 504.24 248.13 516.43 249.47 528.46 251.76 540.32 255.33 551.97 260.38 563.39 267.01 574.57 275.22 585.48 284.85 596.12 295.64 594.83 307.36 592.48 319.08 589.16 330.8 584.97 342.52 580.07 354.24 574.63 365.95 568.85 377.67 562.93 389.39 557.08 401.11 551.52 412.83 546.44 424.55 542.02 436.27 538.41 447.99 535.76 459.71 529.09 476.86 514.69 482.82 505.6 485.15 496.73 489.61 488.06 496.34 479.58 505.31 471.24 516.33 463.03 529.02 454.93 542.9 446.9 557.35 438.91 571.73 430.95 585.38 422.99 597.68 415 608.13 406.95 616.34 398.84 622.11 386.49 613.11 374.27 601.97 362.2 589.1 350.3 575.07 338.56 560.51 327 546.09 315.62 532.46 304.43 520.2 293.44 509.77 282.63 501.49 272 495.51 261.55 491.8 251.27 490.14 241.15 490.18 226.38 486.43 222.28 469.56 223.43 457.68 225 445.8 226.92 433.93 229.13 422.05 231.55 410.17 234.09 398.29 236.66 386.41 239.17 374.54 241.53 362.66 243.66 350.78 245.48 338.9 246.93 327.03 247.95 315.15 248.51 303.27 259.48 291.57 270.32 280.54 281.02 270.55 291.58 261.9 301.97 254.77 312.19 249.2 322.22 245.15 332.07 242.42 341.73 240.74 351.19 239.76 360.46 239.09 369.54 238.3 378.43 237.01 387.15 234.86 399.9 229.3 404.1 227.02" stroke-dasharray="9 4" transform="rotate(44.44, 400, 400)" opacity="0.47"></path><path d="M408.44 240.18Q420.11 246.21 431.77 250.98 443.42 254.53 455.02 256.96 466.56 258.46 478.02 259.3 489.38 259.77 500.62 260.23 511.72 261.01 522.65 262.46 533.41 264.86 543.97 268.45 554.32 273.4 564.45 279.76 574.35 287.52 583.99 296.55 582.32 307.38 579.77 318.22 576.42 329.05 572.37 339.88 567.75 350.72 562.71 361.55 557.39 372.39 551.97 383.22 546.61 394.06 541.48 404.89 536.74 415.73 532.53 426.56 529 437.4 526.23 448.23 519.22 464.79 505.1 472.69 496.32 476.66 487.75 482.57 479.36 490.43 471.16 500.1 463.11 511.33 455.19 523.76 447.4 536.94 439.7 550.36 432.07 563.48 424.5 575.8 416.97 586.84 409.45 596.21 401.92 603.63 394.36 608.94 383.01 600.65 371.81 590.5 360.75 578.81 349.86 566.02 339.13 552.64 328.57 539.18 318.18 526.18 307.96 514.14 297.91 503.47 288.03 494.51 278.31 487.44 268.74 482.36 259.32 479.19 250.03 477.76 236.57 472.79 233.16 456.85 234.43 445.89 236.07 434.92 238.01 423.96 240.2 412.99 242.57 402.02 245.05 391.06 247.55 380.09 250.01 369.13 252.34 358.16 254.48 347.2 256.35 336.23 257.9 325.27 259.07 314.3 259.85 303.34 270.21 292.96 280.47 283.51 290.62 275.24 300.64 268.3 310.53 262.76 320.27 258.6 329.85 255.68 339.27 253.81 348.52 252.72 357.6 252.1 375.15 250.61 392.17 247.56 404.41 242.32 408.44 240.18" stroke-dasharray="9 9" transform="rotate(48.48, 400, 400)" opacity="0.51"></path><path d="M412.45 253.35Q423.17 259 433.87 263.53 444.51 266.98 455.09 269.41 465.58 270.96 475.98 271.84 486.27 272.29 496.42 272.56 506.44 272.96 516.3 273.75 526 275.21 535.51 277.56 544.83 280.99 553.96 285.62 562.88 291.51 571.59 298.62 569.63 308.61 566.96 318.6 563.64 328.58 559.77 338.57 555.46 348.56 550.81 358.55 545.95 368.54 541.01 378.53 536.12 388.51 531.42 398.5 527.03 408.49 523.06 418.48 519.63 428.47 516.83 438.46 509.63 454.55 495.91 464.44 487.48 469.85 479.23 476.93 471.16 485.56 463.26 495.58 455.51 506.71 447.9 518.62 440.41 530.92 433.03 543.21 425.74 555.06 418.53 566.07 411.38 575.89 404.27 584.24 397.19 590.9 390.11 595.78 379.8 588.18 369.63 578.98 359.61 568.43 349.74 556.87 340.02 544.67 330.45 532.25 321.04 520.03 311.78 508.43 302.66 497.79 293.69 488.44 284.86 480.59 276.15 474.37 259.15 467.66 242.45 465.27 243.11 455.19 244.14 445.11 245.52 435.02 247.2 424.94 249.15 414.86 251.3 404.78 253.61 394.69 256.01 384.61 258.43 374.53 260.82 364.45 263.1 354.36 265.22 344.28 267.12 334.2 268.74 324.12 270.06 314.03 271.02 303.95 280.76 295.2 290.43 287.5 300 280.98 309.47 275.69 318.83 271.62 328.07 268.69 337.17 266.73 346.14 265.56 363.57 264.55 380.54 263.48 404.59 256.57 412.45 253.35" stroke-dasharray="5 8" transform="rotate(52.52, 400, 400)" opacity="0.54"></path><path d="M415.95 266.52Q425.69 271.78 435.37 276.07 444.99 279.4 454.52 281.82 463.97 283.44 473.31 284.4 482.53 284.88 491.63 285.09 500.6 285.24 509.42 285.58 526.52 288.07 543.12 292.92 553.95 304.25 554.06 320.64 550.84 329.82 547.18 339 543.18 348.18 538.93 357.36 534.51 366.54 530.04 375.72 525.62 384.9 521.34 394.08 517.3 403.26 513.6 412.44 510.32 421.62 507.53 430.79 500.3 446.45 487.08 458.1 479.05 464.66 471.17 472.52 463.46 481.56 455.9 491.57 448.48 502.31 441.19 513.48 434.02 524.77 426.96 535.86 420 546.42 413.13 556.17 406.33 564.84 399.6 572.22 384.96 576.93 367.88 567.4 358.88 557.96 350.03 547.59 341.31 536.58 332.72 525.26 324.26 513.94 315.94 502.96 307.73 492.61 299.65 483.16 291.67 474.84 283.81 467.8 268.4 458.58 253.25 453.39 254.09 444.15 255.25 434.92 256.7 425.69 258.41 416.45 260.34 407.22 262.44 397.98 264.67 388.75 266.97 379.52 269.3 370.28 271.59 361.05 273.81 351.81 275.89 342.58 277.79 333.34 279.47 324.11 280.89 314.87 282.01 305.64 291.11 298.68 300.16 292.76 309.14 287.92 318.03 284.14 326.84 281.35 335.55 279.45 352.58 277.81 369.26 277.12 385.3 275.83 400.94 272.95 412.23 268.36 415.95 266.52" stroke-dasharray="10 6" transform="rotate(56.56, 400, 400)" opacity="0.58"></path><path d="M418.8 279.7Q436.19 288.59 453.27 294.2 469.97 296.94 486.24 297.74 502.02 297.85 517.27 298.72 531.95 301.69 546.05 307.79 541.09 324.6 534.6 341.41 527.08 358.22 519.08 375.03 511.24 391.84 504.13 408.65 498.32 425.46 494.24 442.27 478.61 453.6 463.56 469.16 449.06 487.91 435.07 508.25 421.52 528.28 408.37 546.1 395.55 560.14 382.97 569.43 366.66 555.77 350.82 538.16 335.43 518.15 320.48 497.64 305.93 478.55 291.74 462.55 277.86 450.76 264.23 443.57 266.48 426.73 269.69 409.89 273.6 393.05 277.93 376.21 282.34 359.37 286.49 342.53 290.07 325.69 292.8 308.85 309.66 299.45 326.31 293.64 342.68 290.85 358.73 290.01 374.4 289.77 389.66 288.73 411.64 282.68 418.8 279.7" stroke-dasharray="2 9" transform="rotate(60.599999999999994, 400, 400)" opacity="0.62"></path><path d="M420.9 292.87Q436.24 301.09 451.28 306.52 465.96 309.42 480.25 310.42 494.12 310.44 507.54 310.55 520.49 311.84 532.97 315.26 528.08 330.58 522.05 345.9 515.25 361.22 508.12 376.54 501.11 391.86 494.66 407.17 489.18 422.49 485.02 437.81 470.45 450.72 456.36 466.6 442.73 484.42 429.54 502.85 416.75 520.45 404.32 535.87 392.21 548.02 380.37 556.26 366.08 544.09 352.17 528.61 338.64 510.92 325.44 492.38 312.56 474.45 299.96 458.47 287.59 445.48 275.4 436.12 277.84 420.84 281.03 405.56 284.8 390.28 288.89 375 293.05 359.71 297.02 344.43 300.54 329.15 303.4 313.87 318.92 307.62 334.28 304.15 349.45 302.78 364.38 302.57 379.02 302.45 393.34 301.34 414.1 295.61 420.9 292.87" stroke-dasharray="10 1" transform="rotate(64.64, 400, 400)" opacity="0.66"></path><path d="M422.14 306.04Q435.49 313.57 448.55 318.77 461.29 321.81 473.7 323.09 485.76 323.23 497.46 323 511.91 330.86 509.51 352.37 503.45 366.23 497.16 380.1 490.97 393.96 485.18 407.82 480.11 421.68 476 435.55 462.59 449.14 449.55 464.56 436.9 480.9 424.59 497.17 412.64 512.33 401 525.46 389.65 535.85 378.57 543.09 366.2 532.35 354.14 518.91 342.37 503.5 330.85 487.08 319.57 470.68 308.48 455.33 297.57 441.91 286.78 431.07 289.32 417.29 292.46 403.52 296.03 389.74 299.85 375.97 303.74 362.19 307.48 348.42 310.89 334.65 313.79 320.87 327.92 317.24 341.95 315.56 355.85 315.17 369.58 315.3 383.1 315.14 396.38 313.93 415.77 308.54 422.14 306.04" stroke-dasharray="2 9" transform="rotate(68.68, 400, 400)" opacity="0.70"></path><path d="M422.49 319.2Q433.91 326.02 445.08 330.95 455.99 334.08 466.63 335.66 476.99 336.08 487.06 335.84 499.41 341.83 497.01 360.56 491.68 372.98 486.2 385.4 480.8 397.83 475.68 410.25 471.07 422.68 467.14 435.1 454.97 448.47 443.1 462.73 431.51 477.19 420.21 491.15 409.18 503.91 398.42 514.89 387.9 523.65 377.63 529.93 367.08 520.57 356.77 509.06 346.65 495.87 336.72 481.65 326.95 467.07 317.32 452.89 307.81 439.76 298.38 428.26 300.94 415.96 303.95 403.66 307.29 391.35 310.81 379.05 314.39 366.75 317.87 354.45 321.1 342.15 323.97 329.84 336.67 328.19 349.31 327.71 361.87 327.88 374.31 328.1 386.62 327.81 398.77 326.49 416.61 321.46 422.49 319.2" stroke-dasharray="7 5" transform="rotate(72.72, 400, 400)" opacity="0.73"></path><path d="M421.93 332.37Q431.51 338.44 440.91 343.04 450.09 346.2 459.07 348.06 482.6 353.85 484.53 370.03 479.93 381.01 475.24 391.99 470.6 402.97 466.16 413.95 462.06 424.94 458.42 435.92 447.58 448.25 436.95 460.8 426.53 473.11 416.33 484.71 406.34 495.17 396.56 504.15 386.98 511.39 377.59 516.76 368.75 508.73 360.05 499.05 351.5 488 343.06 475.98 334.73 463.44 326.48 450.84 318.31 438.67 310.18 427.36 312.69 416.51 315.52 405.67 318.58 394.82 321.78 383.97 325.01 373.13 328.18 362.28 331.19 351.43 333.95 340.59 345.17 340.23 356.37 340.43 367.51 340.79 378.6 340.92 389.6 340.43 400.5 339.01 416.6 334.37 421.93 332.37" stroke-dasharray="2 8" transform="rotate(76.76, 400, 400)" opacity="0.77"></path><path d="M420.47 345.54Q436.01 354.49 451.09 360.21 470.64 366.12 472.1 380.25 468.21 389.77 464.28 399.29 460.38 408.8 456.61 418.32 453.06 427.83 449.8 437.35 440.36 448.01 431.06 458.49 421.92 468.5 412.93 477.78 404.09 486.09 395.4 493.24 379.02 497.97 364 488.88 356.89 479.86 349.85 470.02 342.88 459.6 335.95 448.9 329.07 438.22 322.2 427.85 324.57 418.46 327.16 409.08 329.9 399.69 332.74 390.3 335.6 380.91 338.42 371.53 347.28 357.59 363.12 353.47 372.79 353.76 382.44 353.67 392.04 352.97 401.59 351.47 415.77 347.28 420.47 345.54" stroke-dasharray="0 9" transform="rotate(80.80000000000001, 400, 400)" opacity="0.81"></path><path d="M418.19 358.72Q430.67 366.94 442.76 372.04 454.46 374.35 465.79 374.56 459.7 390.6 453.32 406.64 447.04 422.67 441.26 438.71 425.4 455.52 409.93 470.34 394.87 482.17 380.22 490.41 368.56 478.56 357.09 463.67 345.73 446.77 334.44 429.11 338.87 413.3 343.7 397.48 348.6 381.66 353.28 365.84 369.58 366.59 385.87 366.27 410.14 361.3 418.19 358.72" stroke-dasharray="1 6" transform="rotate(84.84, 400, 400)" opacity="0.85"></path><path d="M415.17 371.89Q424.78 378.72 434.15 383.5 445.33 393.39 442.36 413.41 437.42 426.36 432.75 439.32 419.9 451.66 407.27 462.34 394.89 470.94 382.76 477.24 373.71 468.07 364.74 456.89 355.8 444.16 346.88 430.46 350.66 417.67 354.66 404.88 358.71 392.08 362.65 379.28 375.78 379.52 388.93 378.65 408.62 374.05 415.17 371.89" stroke-dasharray="4 2" transform="rotate(88.88, 400, 400)" opacity="0.89"></path><path d="M411.54 385.05Q425.28 393.95 438.68 399.4 435.06 409.19 431.4 418.99 427.77 428.79 424.25 438.59 414.51 446.72 404.88 453.75 387.38 458.49 372.76 449.62 366.14 440.82 359.52 431.23 362.52 421.54 365.62 411.84 375.24 397.08 391.66 390.73 406.57 386.75 411.54 385.05" stroke-dasharray="5 6" transform="rotate(92.92, 400, 400)" opacity="0.92"></path><path d="M407.44 398.22Q416.41 405.07 425.2 409.78 420.44 422.91 415.73 436.06 402.68 444.6 389.82 450.91 381.1 441.83 372.35 430.81 376.58 417.76 380.87 404.73 400.78 400.34 407.44 398.22" stroke-dasharray="3 2" transform="rotate(96.96, 400, 400)" opacity="0.96"></path></g></svg>