<svg xmlns="http://www.w3.org/2000/svg" version="1.1" xmlns:xlink="http://www.w3.org/1999/xlink" xmlns:svgjs="http://svgjs.dev/svgjs" viewBox="0 0 800 800" opacity="0.76" width="800" height="800"><g stroke-width="1" stroke="#f41415" fill="none"><line x1="0" y1="0" x2="266.6666666666667" y2="266.6666666666667"></line><line x1="266.6666666666667" y1="0" x2="0" y2="266.6666666666667"></line><rect width="266.6666666666667" height="266.6666666666667" x="0" y="0" opacity="0.15"></rect><line x1="266.6666666666667" y1="0" x2="533.3333333333334" y2="266.6666666666667"></line><line x1="533.3333333333334" y1="0" x2="266.6666666666667" y2="266.6666666666667"></line><rect width="266.6666666666667" height="266.6666666666667" x="266.6666666666667" y="0" opacity="0.15"></rect><line x1="533.3333333333334" y1="0" x2="800" y2="266.6666666666667"></line><line x1="800" y1="0" x2="533.3333333333334" y2="266.6666666666667"></line><rect width="266.6666666666667" height="266.6666666666667" x="533.3333333333334" y="0" opacity="0.15"></rect><line x1="800" y1="0" x2="1066.6666666666667" y2="266.6666666666667"></line><line x1="1066.6666666666667" y1="0" x2="800" y2="266.6666666666667"></line><rect width="266.6666666666667" height="266.6666666666667" x="800" y="0" opacity="0.15"></rect><line x1="0" y1="266.6666666666667" x2="266.6666666666667" y2="533.3333333333334"></line><line x1="266.6666666666667" y1="266.6666666666667" x2="0" y2="533.3333333333334"></line><rect width="266.6666666666667" height="266.6666666666667" x="0" y="266.6666666666667" opacity="0.15"></rect><line x1="266.6666666666667" y1="266.6666666666667" x2="533.3333333333334" y2="533.3333333333334"></line><line x1="533.3333333333334" y1="266.6666666666667" x2="266.6666666666667" y2="533.3333333333334"></line><rect width="266.6666666666667" height="266.6666666666667" x="266.6666666666667" y="266.6666666666667" opacity="0.15"></rect><line x1="533.3333333333334" y1="266.6666666666667" x2="800" y2="533.3333333333334"></line><line x1="800" y1="266.6666666666667" x2="533.3333333333334" y2="533.3333333333334"></line><rect width="266.6666666666667" height="266.6666666666667" x="533.3333333333334" y="266.6666666666667" opacity="0.15"></rect><line x1="800" y1="266.6666666666667" x2="1066.6666666666667" y2="533.3333333333334"></line><line x1="1066.6666666666667" y1="266.6666666666667" x2="800" y2="533.3333333333334"></line><rect width="266.6666666666667" height="266.6666666666667" x="800" y="266.6666666666667" opacity="0.15"></rect><line x1="0" y1="533.3333333333334" x2="266.6666666666667" y2="800"></line><line x1="266.6666666666667" y1="533.3333333333334" x2="0" y2="800"></line><rect width="266.6666666666667" height="266.6666666666667" x="0" y="533.3333333333334" opacity="0.15"></rect><line x1="266.6666666666667" y1="533.3333333333334" x2="533.3333333333334" y2="800"></line><line x1="533.3333333333334" y1="533.3333333333334" x2="266.6666666666667" y2="800"></line><rect width="266.6666666666667" height="266.6666666666667" x="266.6666666666667" y="533.3333333333334" opacity="0.15"></rect><line x1="533.3333333333334" y1="533.3333333333334" x2="800" y2="800"></line><line x1="800" y1="533.3333333333334" x2="533.3333333333334" y2="800"></line><rect width="266.6666666666667" height="266.6666666666667" x="533.3333333333334" y="533.3333333333334" opacity="0.15"></rect><line x1="800" y1="533.3333333333334" x2="1066.6666666666667" y2="800"></line><line x1="1066.6666666666667" y1="533.3333333333334" x2="800" y2="800"></line><rect width="266.6666666666667" height="266.6666666666667" x="800" y="533.3333333333334" opacity="0.15"></rect><line x1="0" y1="800" x2="266.6666666666667" y2="1066.6666666666667"></line><line x1="266.6666666666667" y1="800" x2="0" y2="1066.6666666666667"></line><rect width="266.6666666666667" height="266.6666666666667" x="0" y="800" opacity="0.15"></rect><line x1="266.6666666666667" y1="800" x2="533.3333333333334" y2="1066.6666666666667"></line><line x1="533.3333333333334" y1="800" x2="266.6666666666667" y2="1066.6666666666667"></line><rect width="266.6666666666667" height="266.6666666666667" x="266.6666666666667" y="800" opacity="0.15"></rect><line x1="533.3333333333334" y1="800" x2="800" y2="1066.6666666666667"></line><line x1="800" y1="800" x2="533.3333333333334" y2="1066.6666666666667"></line><rect width="266.6666666666667" height="266.6666666666667" x="533.3333333333334" y="800" opacity="0.15"></rect><line x1="800" y1="800" x2="1066.6666666666667" y2="1066.6666666666667"></line><line x1="1066.6666666666667" y1="800" x2="800" y2="1066.6666666666667"></line><rect width="266.6666666666667" height="266.6666666666667" x="800" y="800" opacity="0.15"></rect></g></svg>